<?xml version="1.0" encoding="UTF-8"?>
<svg width="512pt" height="512pt" version="1.1" viewBox="0 0 180.62 180.62" xml:space="preserve" xmlns="http://www.w3.org/2000/svg" xmlns:xlink="http://www.w3.org/1999/xlink"><defs><linearGradient id="linearGradient30"><stop stop-color="#48bbea" offset=".61173"/><stop offset="1"/></linearGradient><linearGradient id="linearGradient25"><stop stop-color="#4f9fd6" offset="0"/><stop stop-color="#4f9fd6" stop-opacity="0" offset="1"/></linearGradient><filter id="filter21" x="-.059053" y="-.075264" width="1.1181" height="1.1505" color-interpolation-filters="sRGB"><feGaussianBlur stdDeviation="2.5708543"/></filter><filter id="filter21-4" x="-.045958" y="-.14427" width="1.0919" height="1.2885" color-interpolation-filters="sRGB"><feGaussianBlur stdDeviation="2.5703524"/></filter><linearGradient id="linearGradient26" x1="-80.475" x2="-39.594" y1="22.994" y2="22.994" gradientUnits="userSpaceOnUse" xlink:href="#linearGradient25"/><filter id="filter26" x="-.017179" y="-.0098967" width="1.0344" height="1.0198" color-interpolation-filters="sRGB"><feGaussianBlur stdDeviation="0.2642567"/></filter><linearGradient id="linearGradient27" x1="-76.4" x2="-47.663" y1="29.718" y2="18.791" gradientUnits="userSpaceOnUse"><stop stop-color="#1d4869" offset="0"/><stop stop-color="#194a6c" stop-opacity="0" offset="1"/></linearGradient><linearGradient id="linearGradient29" x1="-76.639" x2="-51.726" y1="22.322" y2="24.184" gradientUnits="userSpaceOnUse" xlink:href="#linearGradient25"/><filter id="filter29" x="-.016062" y="-.0095778" width="1.0321" height="1.0192" color-interpolation-filters="sRGB"><feGaussianBlur stdDeviation="0.25724752"/></filter><radialGradient id="radialGradient31" cx="64.503" cy="102.96" r="6.2428" gradientTransform="matrix(1.0387 1.3136 -.52797 .41746 43.568 -2.5185)" gradientUnits="userSpaceOnUse" xlink:href="#linearGradient30"/><linearGradient id="linearGradient41" x1="-123.28" x2="-70.144" y1="137.76" y2="107.07" gradientUnits="userSpaceOnUse"><stop stop-color="#27ff71" offset="0"/><stop stop-color="#a42fff" offset="1"/></linearGradient><radialGradient id="radialGradient31-6" cx="64.154" cy="95.524" r="6.2428" gradientTransform="matrix(1.7954 1.8918 -.99934 .97005 60.746 -121.13)" gradientUnits="userSpaceOnUse" xlink:href="#linearGradient30"/></defs><g><g transform="matrix(1.7254 0 0 1.7254 117.21 164.8)" fill="#236796" stop-color="#000000" style="paint-order:stroke fill markers"><path d="m-15.588-87.912c-.65419 0-1.3085.16918-1.8946.50766l-35.197 20.32c-1.1724.67675-1.8947 1.9277-1.8946 3.2813v33.826l.46231.26112v1.6221l-.46231-.26172v5.1955c-3.6e-5 1.3537.72229 2.6043 1.8946 3.281l35.197 20.322c1.1723.67695 2.6167.67695 3.789 0l35.197-20.322c1.1724-.67675 1.8944-1.9274 1.8943-3.281v-40.643c3.7e-5-1.3537-.72199-2.6046-1.8943-3.2813l-11.839-6.678-.40329.24316-.76836-.44365v-.4761l-22.187-12.966c-.58616-.33848-1.2402-.50766-1.8943-.50766z" fill="#236796" stop-color="#000000" style="paint-order:stroke fill markers"/></g><g transform="matrix(1.7254 0 0 1.7254 161.9 68.076)" fill="url(#linearGradient26)" stop-color="#000000" style="paint-order:stroke fill markers"><path d="m-43.893 12.887s-36.12-21.604-36.12-20.251v40.222c-3.6e-5 1.3537.21785 1.9741 1.3902 2.6508l35.239 20.995c1.1723.67695-1.6816-1.0463-.50931-1.7232 0 0 1.1723-42.571 0-41.894z" fill="url(#linearGradient29)" filter="url(#filter26)" stop-color="#000000" style="paint-order:stroke fill markers"/></g><g stroke-linejoin="round" stroke-miterlimit="6.9" stroke-width="20"><path d="m89.088 141.88c-6.3084 0 2.0708-34.496-5.5013-47.788-7.8126-13.714-48.498-28.007-45.343-33.47 3.1542-5.4632 40.357 25.059 50.241 25.059 9.8838 0 50.575-30.833 53.909-25.059 3.1542 5.4632-41.158 19.887-48.977 33.47-7.7668 13.493 1.9807 47.788-4.3277 47.788z" fill="#1aa3de" filter="url(#filter21)" opacity=".5" style="mix-blend-mode:normal;paint-order:stroke fill markers"/><path d="m131.17 36.785-65.611 37.807-.52203 1.0513v61.418h.8648l1.3107-61.596 65.365-37.869z" fill="#48bbea" stop-color="#000000" style="paint-order:stroke fill markers"/><path d="m23.841 113.84v1.0938l-.79768.94783 42.287 23.939h1.1086z" fill="#48bbea" stop-color="#000000" style="paint-order:stroke fill markers"/></g><path d="m131.74 37.118-65.616 37.871-.50391.90625.28125 60.169-.8648.51344-41.196-23.041v2.2671l42.598 24.014 1.5898-.92187-.28711-62.416 65.446-38.526z" stop-color="#000000" stroke-linejoin="bevel" stroke-miterlimit="6.9" style="paint-order:stroke fill markers"/><g stroke-linejoin="round" stroke-miterlimit="6.9"><path d="m35.734 70.37-5.3014-2.9035.67521 53.788 4.3259 3.0941z" fill="#27ff71" stroke-width="14.677" style="paint-order:stroke fill markers"/><g stroke-width="20"><path d="m35.019 70.824v52.614l-3.9112-2.184-1.4457.63868 6.7868 3.951v-55.929z" stop-color="#000000" style="paint-order:stroke fill markers"/><path d="m29.662 66.016v55.877l1.4457-.63868v-52.688l3.9112 2.2581 1.4299-.90929z" fill="#48bbea" stop-color="#000000" style="paint-order:stroke fill markers"/><path d="m90.372 169.35c-26.559.1112-70.772-36.685-67.618-42.148 3.1542-5.4632 57.566 33.042 67.449 33.042 9.8838 0 63.457-38.951 66.542-33.042 2.1019 4.0263-40.165 42.038-66.373 42.148z" filter="url(#filter21-4)" opacity=".5" style="paint-order:stroke fill markers"/></g></g><path transform="matrix(-1.7254 0 0 1.7254 16.901 68.076)" d="m-43.893 12.887s-37.64-21.983-37.64-20.629v40.643c-3.6e-5 1.3537.72217 2.6045 1.8945 3.2812l36.255 20.322c1.1723.67695-1.6816-1.0463-.50931-1.7232 0 0 1.1723-42.571 0-41.894z" fill="url(#linearGradient27)" filter="url(#filter29)" stop-color="#000000" style="paint-order:stroke fill markers"/></g><g transform="matrix(.54968 0 0 .54968 30.327 57.083)"><path d="m56.142 123.38c0 3.1717-2.5711 4.5504-5.7428 3.0795s-5.7428-5.2345-5.7428-8.4061 2.5711-4.5504 5.7428-3.0795 5.7428 5.2345 5.7428 8.4061z" fill="#7d7d7d" style="paint-order:stroke fill markers"/><path d="m50.359 114.97c-2.9409-1.3639-5.3655-.27773-5.7028 2.4161l11.406 5.2895c-.33723-3.0066-2.7618-6.3417-5.7028-7.7056zm-5.7028 3.78c.33723 3.0066 2.7618 6.3415 5.7028 7.7054 2.9409 1.3639 5.3655.27791 5.7028-2.4159z" fill="#cbcbcb" style="paint-order:stroke fill markers"/></g><g stroke-linejoin="round" stroke-miterlimit="6.9"><path d="m61.165 124.9c0 1.7434-1.4133 2.5012-3.1567 1.6927-1.7434-.80853-3.1567-2.8773-3.1567-4.6207 0-1.7434 1.4133-2.5013 3.1567-1.6927 1.7434.80853 3.1567 2.8773 3.1567 4.6207z" fill="none" stroke="url(#radialGradient31)" stroke-width=".54968" style="paint-order:stroke fill markers"/><path d="m33.935 51.896 56.445-32.587 24.182 13.961-56.444 32.59z" fill="#de46da" style="paint-order:stroke fill markers"/><path d="m90.38 19.309-56.445 32.588 1.833 1.0583 54.612-31.529 22.35 12.903 1.833-1.0583z" fill="#48bbea" opacity=".62674" stop-color="#000000" stroke-width="20" style="paint-order:stroke fill markers"/></g><g transform="translate(221.12 12.409)"><path d="m-70.144 101.05-2.7306 1.5586v10.514l2.7306-1.6113zm-5.6002 3.2246-2.7301 1.5586v10.514l2.7301-1.6113zm-5.6002 3.2417-2.7301 1.5586v10.514l2.7301-1.6118zm-5.6002 3.2246-2.7301 1.5586v10.514l2.7301-1.6113zm-5.6002 3.2329-2.7301 1.5586v10.514l2.7301-1.6113zm-5.6002 3.2329-2.7301 1.5586v10.514l2.7301-1.6113zm-5.6002 3.2422-2.7301 1.5586v10.514l2.7301-1.6113zm-5.6002 3.2329-2.7301 1.5586v10.514l2.7301-1.6113zm-5.5997 3.2246-2.7306 1.5586v10.514l2.7306-1.6113zm-5.6002 3.2329-2.7306 1.5586v10.514l2.7306-1.6118z" fill="url(#linearGradient41)" stroke-linejoin="round" stroke-miterlimit="6.9" stroke-width="16.338" style="paint-order:stroke fill markers"/><path d="m-123.27 142.21 2.7306-1.5586v-10.514l-.26459.15606v10.093l-2.466 1.4077zm5.6002-3.2246 2.7301-1.5586v-10.514l-.26458.15607v10.093l-2.4655 1.4077zm5.6002-3.2417 2.7301-1.5586v-10.514l-.26458.15607v10.093l-2.4655 1.4077zm5.6002-3.2246 2.7301-1.5586v-10.514l-.26458.15606v10.093l-2.4655 1.4077zm5.6002-3.2329 2.7301-1.5586v-10.514l-.26459.15607v10.093l-2.4655 1.4077zm5.6002-3.2329 2.7301-1.5586v-10.514l-.26459.15606v10.093l-2.4655 1.4077zm5.6002-3.2422 2.7301-1.5586v-10.514l-.26458.15606v10.093l-2.4655 1.4077zm5.6002-3.2329 2.7301-1.5586v-10.514l-.26459.15606v10.093l-2.4655 1.4077zm5.5997-3.2246 2.7306-1.5586v-10.514l-.26458.15606v10.093l-2.466 1.4077zm5.6002-3.2329 2.7306-1.5586v-10.514l-.26459.15607v10.093l-2.466 1.4077z" fill="#84bfe4" fill-opacity=".88819" stop-color="#000000" style="paint-order:stroke fill markers"/></g><g transform="translate(-2.6339 1.2616)"><path d="m135.48 83.073-11.163 6.4683v32.352l.00052-.001v.001l11.162-6.4689zm-12.731 7.3773-.00051.000517c-21.515 43.664 10.032-20.381-11.162 22.644h.00051l.00052-.00052 11.162-6.4678z" fill="#204f63" opacity=".62674" stop-color="#000000" style="paint-order:stroke fill markers"/><path d="m135.48 83.073-.56276.32608v31.789l-10.599 6.1428v.56276l11.162-6.4689zm-12.731 7.3773-.56275 1.1415v14.798l-10.212 5.9175-.38809.78755 11.163-6.4683z" fill="#48bbea" opacity=".62674" stop-color="#000000" stroke-linejoin="round" stroke-miterlimit="6.9" stroke-width="20" style="paint-order:stroke fill markers"/><path d="m135.48 83.073-11.163 6.4683v32.352l.49558-.84967v-31.209l10.104-5.8554zm-12.732 7.3778-11.162 22.645 1.2843-1.3074 9.3156-18.898z" stop-color="#000000" stroke-linejoin="round" stroke-miterlimit="6.9" stroke-width="20" style="paint-order:stroke fill markers"/></g><path d="m83.236 98.969c0 3.4066-2.7616 5.2053-6.1683 4.0175-3.4067-1.1878-6.1683-4.9123-6.1683-8.319 0-3.4067 2.7616-5.2054 6.1683-4.0176 3.4066 1.1878 6.1683 4.9123 6.1683 8.319z" fill="#dc0000" style="paint-order:stroke fill markers"/><path d="m83.193 98.974c0 3.4066-2.7616 5.2053-6.1683 4.0175-3.4066-1.1878-6.1683-4.9123-6.1683-8.319 0-3.4066 2.7616-5.2054 6.1683-4.0176 3.4067 1.1878 6.1683 4.9123 6.1683 8.319z" fill="none" stroke="url(#radialGradient31-6)" stroke-linejoin="round" stroke-miterlimit="6.9" stroke-width="2.5" style="paint-order:stroke fill markers"/></svg>
